<svg width="439" height="401" viewBox="0 0 439 401" fill="none" xmlns="http://www.w3.org/2000/svg">
<g clip-path="url(#clip0)">
<path d="M59 380.352C59 376.486 62.134 373.352 66 373.352H136C139.866 373.352 143 376.486 143 380.352C143 384.217 139.866 387.352 136 387.352H66C62.134 387.352 59 384.217 59 380.352Z" fill="white"/>
<path d="M133 335.352C133 331.486 136.134 328.352 140 328.352H210C213.866 328.352 217 331.486 217 335.352C217 339.217 213.866 342.352 210 342.352H140C136.134 342.352 133 339.217 133 335.352Z" fill="white"/>
<path d="M207 290.352C207 286.486 210.134 283.352 214 283.352H284C287.866 283.352 291 286.486 291 290.352C291 294.217 287.866 297.352 284 297.352H214C210.134 297.352 207 294.217 207 290.352Z" fill="white"/>
<path d="M281 245.352C281 241.486 284.134 238.352 288 238.352H358C361.866 238.352 365 241.486 365 245.352C365 249.217 361.866 252.352 358 252.352H288C284.134 252.352 281 249.217 281 245.352Z" fill="white"/>
<path d="M355 200.352C355 196.486 358.134 193.352 362 193.352H432C435.866 193.352 439 196.486 439 200.352C439 204.217 435.866 207.352 432 207.352H362C358.134 207.352 355 204.217 355 200.352Z" fill="white"/>
<path d="M105.533 330.51C101.089 327.455 101.367 321.137 102.061 318.359L136.431 269.06L149.624 220.109C148.235 220.109 147.657 218.257 147.541 217.331L138.861 139.911L110.046 176.365L105.185 182.614C108.796 184.836 107.847 188.4 106.921 189.905C105.88 191.872 103.519 196.362 102.408 198.584C101.297 200.806 102.64 202.056 103.45 202.403C109.814 205.643 124.072 213.026 130.182 216.637C136.292 220.248 134.811 229.251 133.307 233.301C125.669 248.461 109.907 279.406 107.963 281.906C105.533 285.031 103.45 286.419 97.8948 287.808C93.451 288.919 89.3312 287.345 87.8267 286.419C62.9459 273.574 12.6287 247.605 10.4067 246.494C7.62934 245.105 4.50476 243.022 1.38019 237.12C-1.11947 232.399 0.338666 225.664 1.38019 222.886C6.93499 212.124 19.4333 188.099 24.9881 178.101C30.5429 168.102 40.7267 169.768 45.1242 171.852C52.1834 175.439 66.8574 183.031 69.0793 184.697C71.3012 186.363 72.3196 184.928 72.551 184.003C73.4768 182.151 75.745 177.684 77.4115 174.629C79.0779 171.574 82.7348 171.504 84.355 171.852C84.2456 171.449 85.0493 169.306 85.3965 169.074L138.514 102.417C140.829 97.2089 149.207 86.3076 164.205 84.3635C182.953 81.9332 190.59 90.9598 192.326 92.6956C193.715 94.0843 196.377 93.2743 197.534 92.6956C216.629 81.8175 255.512 59.7141 258.29 58.3254C261.761 56.5895 269.052 55.8951 274.26 63.533C278.426 69.6433 274.144 76.0313 271.482 78.4615L202.742 116.998L192.326 203.444H238.153C247.874 203.444 249.842 210.619 249.61 214.207L245.444 275.657C245.328 279.707 242.667 287.808 232.946 287.808C223.225 287.808 220.795 280.633 220.795 277.046L223.919 228.094H180.522L174.273 226.011C170.339 239.782 162.192 268.505 161.081 273.227C159.97 277.948 158.303 280.98 157.609 281.906C148.698 294.52 129.765 321.276 125.322 327.386C119.767 335.024 111.087 334.329 105.533 330.51Z" fill="white"/>
<path d="M94.0759 197.542L77.4115 188.516C76.5783 188.065 76.6014 187.171 76.7172 186.78L81.5776 178.101C82.2719 177.175 83.7301 175.879 84.0078 178.101C84.355 180.878 87.4796 184.697 89.9098 186.086C92.34 187.474 97.5476 187.474 100.672 186.78C103.172 186.225 102.871 187.706 102.408 188.516C101.251 190.599 98.728 195.182 97.8948 196.848C97.0616 198.515 95.0017 198.005 94.0759 197.542Z" fill="white"/>
<path d="M206.561 36.8005C206.561 57.1249 190.084 73.6011 169.76 73.6011C149.436 73.6011 132.959 57.1249 132.959 36.8005C132.959 16.4762 149.436 0 169.76 0C190.084 0 206.561 16.4762 206.561 36.8005Z" fill="white"/>
<path d="M251.718 393.352V372.023H258.69C261.005 372.023 262.743 372.502 263.905 373.459C265.077 374.416 265.663 375.832 265.663 377.707C265.663 378.703 265.38 379.587 264.813 380.358C264.247 381.12 263.476 381.711 262.499 382.131C263.651 382.453 264.56 383.068 265.224 383.977C265.897 384.875 266.234 385.949 266.234 387.199C266.234 389.113 265.614 390.617 264.374 391.711C263.134 392.805 261.381 393.352 259.115 393.352H251.718ZM254.53 383.376V391.052H259.174C260.482 391.052 261.513 390.715 262.265 390.041C263.026 389.357 263.407 388.42 263.407 387.228C263.407 384.66 262.011 383.376 259.218 383.376H254.53ZM254.53 381.12H258.778C260.009 381.12 260.99 380.812 261.723 380.197C262.465 379.582 262.836 378.747 262.836 377.692C262.836 376.52 262.494 375.671 261.811 375.143C261.127 374.606 260.087 374.338 258.69 374.338H254.53V381.12Z" fill="white"/>
<path d="M286.815 383.376C286.815 385.466 286.464 387.292 285.761 388.854C285.058 390.407 284.062 391.594 282.772 392.414C281.483 393.234 279.979 393.644 278.261 393.644C276.581 393.644 275.092 393.234 273.793 392.414C272.494 391.584 271.483 390.407 270.761 388.884C270.048 387.351 269.682 385.578 269.662 383.566V382.028C269.662 379.977 270.019 378.166 270.731 376.594C271.444 375.021 272.45 373.82 273.749 372.99C275.058 372.15 276.552 371.73 278.231 371.73C279.94 371.73 281.444 372.145 282.743 372.976C284.052 373.796 285.058 374.992 285.761 376.564C286.464 378.127 286.815 379.948 286.815 382.028V383.376ZM284.018 381.999C284.018 379.47 283.51 377.531 282.494 376.184C281.479 374.826 280.058 374.147 278.231 374.147C276.454 374.147 275.053 374.826 274.027 376.184C273.012 377.531 272.489 379.406 272.46 381.809V383.376C272.46 385.827 272.973 387.756 273.998 389.162C275.033 390.559 276.454 391.257 278.261 391.257C280.077 391.257 281.483 390.598 282.479 389.279C283.476 387.951 283.988 386.052 284.018 383.581V381.999Z" fill="white"/>
<path d="M307.44 383.376C307.44 385.466 307.089 387.292 306.386 388.854C305.683 390.407 304.687 391.594 303.397 392.414C302.108 393.234 300.604 393.644 298.886 393.644C297.206 393.644 295.717 393.234 294.418 392.414C293.119 391.584 292.108 390.407 291.386 388.884C290.673 387.351 290.307 385.578 290.287 383.566V382.028C290.287 379.977 290.644 378.166 291.356 376.594C292.069 375.021 293.075 373.82 294.374 372.99C295.683 372.15 297.177 371.73 298.856 371.73C300.565 371.73 302.069 372.145 303.368 372.976C304.677 373.796 305.683 374.992 306.386 376.564C307.089 378.127 307.44 379.948 307.44 382.028V383.376ZM304.643 381.999C304.643 379.47 304.135 377.531 303.119 376.184C302.104 374.826 300.683 374.147 298.856 374.147C297.079 374.147 295.678 374.826 294.652 376.184C293.637 377.531 293.114 379.406 293.085 381.809V383.376C293.085 385.827 293.598 387.756 294.623 389.162C295.658 390.559 297.079 391.257 298.886 391.257C300.702 391.257 302.108 390.598 303.104 389.279C304.101 387.951 304.613 386.052 304.643 383.581V381.999Z" fill="white"/>
<path d="M325.985 374.338H319.13V393.352H316.332V374.338H309.491V372.023H325.985V374.338Z" fill="white"/>
<path d="M351.693 386.584C351.43 388.84 350.595 390.583 349.188 391.813C347.792 393.034 345.932 393.644 343.607 393.644C341.088 393.644 339.066 392.741 337.543 390.935C336.029 389.128 335.272 386.711 335.272 383.684V381.633C335.272 379.65 335.624 377.907 336.327 376.403C337.04 374.899 338.046 373.747 339.345 372.946C340.644 372.136 342.147 371.73 343.856 371.73C346.122 371.73 347.938 372.365 349.306 373.635C350.673 374.894 351.469 376.643 351.693 378.879H348.866C348.622 377.18 348.09 375.949 347.27 375.187C346.459 374.426 345.321 374.045 343.856 374.045C342.06 374.045 340.648 374.709 339.623 376.037C338.607 377.365 338.1 379.255 338.1 381.706V383.771C338.1 386.086 338.583 387.927 339.55 389.294C340.517 390.661 341.869 391.345 343.607 391.345C345.17 391.345 346.366 390.993 347.196 390.29C348.036 389.577 348.593 388.342 348.866 386.584H351.693Z" fill="white"/>
<path d="M367.323 387.785H358.388L356.381 393.352H353.48L361.625 372.023H364.086L372.245 393.352H369.359L367.323 387.785ZM359.237 385.471H366.488L362.855 375.495L359.237 385.471Z" fill="white"/>
<path d="M378.749 372.023L385.722 389.426L392.694 372.023H396.342V393.352H393.529V385.046L393.793 376.081L386.791 393.352H384.638L377.65 376.125L377.929 385.046V393.352H375.116V372.023H378.749Z" fill="white"/>
<path d="M404.12 385.002V393.352H401.308V372.023H409.174C411.508 372.023 413.334 372.619 414.652 373.81C415.98 375.002 416.645 376.579 416.645 378.542C416.645 380.612 415.995 382.209 414.696 383.332C413.407 384.445 411.557 385.002 409.145 385.002H404.12ZM404.12 382.702H409.174C410.678 382.702 411.83 382.351 412.631 381.647C413.432 380.935 413.832 379.909 413.832 378.571C413.832 377.302 413.432 376.286 412.631 375.524C411.83 374.763 410.731 374.367 409.335 374.338H404.12V382.702Z" fill="white"/>
<path d="M265.885 329.805H274.43V354.194C274.43 356.457 273.901 358.475 272.843 360.249C271.801 362.023 270.336 363.398 268.448 364.375C266.576 365.352 264.485 365.84 262.174 365.84C258.3 365.84 255.289 364.863 253.141 362.91C250.992 360.957 249.918 358.19 249.918 354.609H258.512C258.512 356.237 258.788 357.417 259.342 358.149C259.911 358.882 260.855 359.248 262.174 359.248C263.362 359.248 264.273 358.809 264.908 357.93C265.559 357.034 265.885 355.789 265.885 354.194V329.805Z" fill="white"/>
<path d="M309.952 348.31C309.952 351.777 309.309 354.845 308.023 357.515C306.738 360.184 304.907 362.243 302.53 363.691C300.17 365.124 297.477 365.84 294.449 365.84C291.422 365.84 288.736 365.148 286.393 363.765C284.049 362.365 282.218 360.371 280.899 357.783C279.597 355.195 278.914 352.225 278.849 348.872V346.87C278.849 343.387 279.483 340.319 280.753 337.666C282.039 334.997 283.87 332.938 286.246 331.489C288.639 330.041 291.357 329.316 294.4 329.316C297.411 329.316 300.097 330.032 302.457 331.465C304.817 332.897 306.648 334.94 307.95 337.593C309.269 340.229 309.936 343.257 309.952 346.675V348.31ZM301.236 346.821C301.236 343.289 300.642 340.612 299.454 338.789C298.282 336.95 296.598 336.03 294.4 336.03C290.104 336.03 287.833 339.253 287.589 345.698L287.564 348.31C287.564 351.794 288.142 354.471 289.298 356.343C290.453 358.214 292.171 359.15 294.449 359.15C296.614 359.15 298.282 358.231 299.454 356.392C300.626 354.552 301.22 351.907 301.236 348.457V346.821Z" fill="white"/>
<path d="M314.371 365.352V329.805H327.14C331.713 329.805 335.188 330.643 337.564 332.319C339.957 333.996 341.153 336.429 341.153 339.619C341.153 341.458 340.73 343.029 339.884 344.331C339.037 345.633 337.792 346.593 336.148 347.212C338.004 347.7 339.428 348.612 340.421 349.946C341.414 351.281 341.91 352.908 341.91 354.829C341.91 358.312 340.803 360.933 338.59 362.69C336.393 364.432 333.129 365.319 328.8 365.352H314.371ZM322.94 350.239V358.76H328.556C330.102 358.76 331.29 358.41 332.12 357.71C332.95 356.994 333.365 355.993 333.365 354.707C333.365 351.745 331.892 350.255 328.946 350.239H322.94ZM322.94 344.624H327.408C329.28 344.608 330.615 344.266 331.412 343.599C332.21 342.931 332.608 341.947 332.608 340.644C332.608 339.147 332.177 338.073 331.314 337.422C330.452 336.754 329.06 336.421 327.14 336.421H322.94V344.624Z" fill="white"/>
</g>
<defs>
<clipPath id="clip0">
<rect width="439" height="400.352" fill="white"/>
</clipPath>
</defs>
</svg>
