<svg width="191" height="200" viewBox="0 0 191 200" fill="none" xmlns="http://www.w3.org/2000/svg">
<rect width="191" height="200" fill="#f6f6f8"/>
<path d="M65.5371 96V81.7812H69.7363C71.2598 81.7812 72.4154 82.097 73.2031 82.7285C73.9909 83.3535 74.3848 84.278 74.3848 85.502C74.3848 86.2376 74.1829 86.8789 73.7793 87.4258C73.3822 87.9661 72.8353 88.3535 72.1387 88.5879C72.9655 88.7702 73.6296 89.1771 74.1309 89.8086C74.6387 90.4401 74.8926 91.1693 74.8926 91.9961C74.8926 93.2526 74.4857 94.2357 73.6719 94.9453C72.8646 95.6484 71.7383 96 70.293 96H65.5371ZM66.7383 89.1641V94.9844H70.3418C71.3704 94.9844 72.1842 94.724 72.7832 94.2031C73.3887 93.6758 73.6914 92.9466 73.6914 92.0156C73.6914 91.1367 73.4017 90.4434 72.8223 89.9355C72.2493 89.4212 71.4551 89.1641 70.4395 89.1641H66.7383ZM66.7383 88.1582H70.0195C71.0221 88.1387 71.7969 87.9043 72.3438 87.4551C72.8971 86.9993 73.1738 86.3385 73.1738 85.4727C73.1738 84.5612 72.8874 83.8906 72.3145 83.4609C71.748 83.0247 70.8887 82.8066 69.7363 82.8066H66.7383V88.1582ZM78.8379 96H77.666V85.4336H78.8379V96ZM77.4609 82.377C77.4609 82.1556 77.5326 81.9701 77.6758 81.8203C77.819 81.6641 78.0143 81.5859 78.2617 81.5859C78.5091 81.5859 78.7044 81.6641 78.8477 81.8203C78.9974 81.9701 79.0723 82.1556 79.0723 82.377C79.0723 82.5983 78.9974 82.7839 78.8477 82.9336C78.7044 83.0833 78.5091 83.1582 78.2617 83.1582C78.0143 83.1582 77.819 83.0833 77.6758 82.9336C77.5326 82.7839 77.4609 82.5983 77.4609 82.377ZM83.3301 96H82.1582V81H83.3301V96ZM87.8223 96H86.6504V81H87.8223V96ZM95.0977 96.1953C94.1992 96.1953 93.3854 95.974 92.6562 95.5312C91.9336 95.0885 91.3704 94.4733 90.9668 93.6855C90.5632 92.8913 90.3613 92.0026 90.3613 91.0195V90.5996C90.3613 89.584 90.5566 88.6693 90.9473 87.8555C91.3444 87.0417 91.8945 86.4036 92.5977 85.9414C93.3008 85.4727 94.0625 85.2383 94.8828 85.2383C96.1654 85.2383 97.181 85.6777 97.9297 86.5566C98.6849 87.429 99.0625 88.6237 99.0625 90.1406V90.7949H91.5234V91.0195C91.5234 92.2174 91.8652 93.2168 92.5488 94.0176C93.2389 94.8118 94.1048 95.209 95.1465 95.209C95.7715 95.209 96.3216 95.0951 96.7969 94.8672C97.2786 94.6393 97.7148 94.2747 98.1055 93.7734L98.8379 94.3301C97.9785 95.5736 96.7318 96.1953 95.0977 96.1953ZM94.8828 86.2344C94.0039 86.2344 93.2617 86.5566 92.6562 87.2012C92.0573 87.8457 91.6927 88.7116 91.5625 89.7988H97.9004V89.6719C97.8678 88.6562 97.5781 87.8294 97.0312 87.1914C96.4844 86.5534 95.7682 86.2344 94.8828 86.2344ZM100.869 90.6191C100.869 88.9785 101.234 87.6732 101.963 86.7031C102.699 85.7266 103.695 85.2383 104.951 85.2383C106.377 85.2383 107.464 85.8014 108.213 86.9277V81H109.375V96H108.281L108.232 94.5938C107.484 95.6615 106.383 96.1953 104.932 96.1953C103.714 96.1953 102.731 95.707 101.982 94.7305C101.24 93.7474 100.869 92.4225 100.869 90.7559V90.6191ZM102.051 90.8242C102.051 92.1719 102.321 93.2363 102.861 94.0176C103.402 94.7923 104.163 95.1797 105.146 95.1797C106.585 95.1797 107.607 94.5449 108.213 93.2754V88.3145C107.607 86.9408 106.592 86.2539 105.166 86.2539C104.183 86.2539 103.418 86.6413 102.871 87.416C102.324 88.1842 102.051 89.3203 102.051 90.8242ZM116.543 96.1953C115.645 96.1953 114.831 95.974 114.102 95.5312C113.379 95.0885 112.816 94.4733 112.412 93.6855C112.008 92.8913 111.807 92.0026 111.807 91.0195V90.5996C111.807 89.584 112.002 88.6693 112.393 87.8555C112.79 87.0417 113.34 86.4036 114.043 85.9414C114.746 85.4727 115.508 85.2383 116.328 85.2383C117.611 85.2383 118.626 85.6777 119.375 86.5566C120.13 87.429 120.508 88.6237 120.508 90.1406V90.7949H112.969V91.0195C112.969 92.2174 113.311 93.2168 113.994 94.0176C114.684 94.8118 115.55 95.209 116.592 95.209C117.217 95.209 117.767 95.0951 118.242 94.8672C118.724 94.6393 119.16 94.2747 119.551 93.7734L120.283 94.3301C119.424 95.5736 118.177 96.1953 116.543 96.1953ZM116.328 86.2344C115.449 86.2344 114.707 86.5566 114.102 87.2012C113.503 87.8457 113.138 88.7116 113.008 89.7988H119.346V89.6719C119.313 88.6562 119.023 87.8294 118.477 87.1914C117.93 86.5534 117.214 86.2344 116.328 86.2344ZM59.0332 108.434L59.0723 110.152C59.4629 109.514 59.9512 109.036 60.5371 108.717C61.123 108.398 61.7741 108.238 62.4902 108.238C64.1569 108.238 65.2148 108.922 65.6641 110.289C66.0417 109.632 66.5462 109.127 67.1777 108.775C67.8092 108.417 68.5059 108.238 69.2676 108.238C71.5332 108.238 72.6888 109.475 72.7344 111.949V119H71.5625V112.037C71.556 111.093 71.3509 110.393 70.9473 109.938C70.5501 109.482 69.8991 109.254 68.9941 109.254C68.1543 109.267 67.4447 109.54 66.8652 110.074C66.2858 110.602 65.9635 111.246 65.8984 112.008V119H64.7266V111.949C64.7201 111.044 64.5052 110.37 64.082 109.928C63.6654 109.479 63.0208 109.254 62.1484 109.254C61.4128 109.254 60.7812 109.465 60.2539 109.889C59.7266 110.305 59.3359 110.927 59.082 111.754V119H57.9102V108.434H59.0332ZM82.373 119C82.2559 118.668 82.181 118.176 82.1484 117.525C81.7383 118.059 81.2142 118.473 80.5762 118.766C79.9447 119.052 79.2741 119.195 78.5645 119.195C77.5488 119.195 76.7253 118.912 76.0938 118.346C75.4688 117.779 75.1562 117.063 75.1562 116.197C75.1562 115.169 75.5827 114.355 76.4355 113.756C77.2949 113.157 78.4896 112.857 80.0195 112.857H82.1387V111.656C82.1387 110.901 81.9043 110.309 81.4355 109.879C80.9733 109.443 80.2962 109.225 79.4043 109.225C78.5905 109.225 77.9167 109.433 77.3828 109.85C76.849 110.266 76.582 110.768 76.582 111.354L75.4102 111.344C75.4102 110.504 75.8008 109.778 76.582 109.166C77.3633 108.548 78.3236 108.238 79.4629 108.238C80.6413 108.238 81.569 108.535 82.2461 109.127C82.9297 109.713 83.2812 110.533 83.3008 111.588V116.588C83.3008 117.61 83.4082 118.375 83.623 118.883V119H82.373ZM78.7012 118.16C79.4824 118.16 80.179 117.971 80.791 117.594C81.4095 117.216 81.8587 116.712 82.1387 116.08V113.756H80.0488C78.8835 113.769 77.972 113.984 77.3145 114.4C76.6569 114.811 76.3281 115.377 76.3281 116.1C76.3281 116.692 76.5462 117.184 76.9824 117.574C77.4251 117.965 77.998 118.16 78.7012 118.16ZM87.5391 108.434L87.5781 110.24C87.9753 109.589 88.4701 109.094 89.0625 108.756C89.6549 108.411 90.3092 108.238 91.0254 108.238C92.1582 108.238 93.0013 108.557 93.5547 109.195C94.1081 109.833 94.388 110.79 94.3945 112.066V119H93.2324V112.057C93.2259 111.113 93.0241 110.41 92.627 109.947C92.2363 109.485 91.6081 109.254 90.7422 109.254C90.0195 109.254 89.3783 109.482 88.8184 109.938C88.265 110.387 87.8548 110.995 87.5879 111.764V119H86.4258V108.434H87.5391ZM96.9531 113.619C96.9531 111.965 97.3177 110.657 98.0469 109.693C98.7826 108.723 99.7786 108.238 101.035 108.238C102.474 108.238 103.568 108.811 104.316 109.957L104.375 108.434H105.469V118.785C105.469 120.146 105.088 121.223 104.326 122.018C103.564 122.812 102.533 123.209 101.23 123.209C100.495 123.209 99.7917 123.043 99.1211 122.711C98.457 122.385 97.9329 121.949 97.5488 121.402L98.2031 120.699C99.0299 121.715 100.013 122.223 101.152 122.223C102.129 122.223 102.891 121.933 103.438 121.354C103.984 120.781 104.268 119.983 104.287 118.961V117.633C103.538 118.674 102.448 119.195 101.016 119.195C99.7917 119.195 98.8086 118.707 98.0664 117.73C97.3242 116.754 96.9531 115.436 96.9531 113.775V113.619ZM98.1348 113.824C98.1348 115.172 98.4049 116.236 98.9453 117.018C99.4857 117.792 100.247 118.18 101.23 118.18C102.669 118.18 103.688 117.535 104.287 116.246V111.334C104.014 110.657 103.62 110.143 103.105 109.791C102.591 109.433 101.973 109.254 101.25 109.254C100.267 109.254 99.502 109.641 98.9551 110.416C98.4082 111.184 98.1348 112.32 98.1348 113.824ZM109.824 119H108.652V104H109.824V119ZM117.1 119.195C116.201 119.195 115.387 118.974 114.658 118.531C113.936 118.089 113.372 117.473 112.969 116.686C112.565 115.891 112.363 115.003 112.363 114.02V113.6C112.363 112.584 112.559 111.669 112.949 110.855C113.346 110.042 113.896 109.404 114.6 108.941C115.303 108.473 116.064 108.238 116.885 108.238C118.167 108.238 119.183 108.678 119.932 109.557C120.687 110.429 121.064 111.624 121.064 113.141V113.795H113.525V114.02C113.525 115.217 113.867 116.217 114.551 117.018C115.241 117.812 116.107 118.209 117.148 118.209C117.773 118.209 118.324 118.095 118.799 117.867C119.281 117.639 119.717 117.275 120.107 116.773L120.84 117.33C119.98 118.574 118.734 119.195 117.1 119.195ZM116.885 109.234C116.006 109.234 115.264 109.557 114.658 110.201C114.059 110.846 113.695 111.712 113.564 112.799H119.902V112.672C119.87 111.656 119.58 110.829 119.033 110.191C118.486 109.553 117.77 109.234 116.885 109.234ZM128.223 109.43C127.975 109.384 127.712 109.361 127.432 109.361C126.702 109.361 126.084 109.566 125.576 109.977C125.075 110.38 124.717 110.969 124.502 111.744V119H123.34V108.434H124.482L124.502 110.113C125.12 108.863 126.113 108.238 127.48 108.238C127.806 108.238 128.063 108.281 128.252 108.365L128.223 109.43Z" fill="#cccccc"/>
</svg>
